# AST/ASF file generated using VICON BodyLanguage
# -----------------------------------------------
:version 1.10
:name VICON
:units
  mass 1.0
  length 0.45
  angle deg
:documentation
   .ast/.asf automatically generated from VICON data using
   VICON BodyBuilder and BodyLanguage model FoxedUp or BRILLIANT.MOD
:root
   order TX TY TZ RX RY RZ
   axis XYZ
   position 0 0 0  
   orientation 0 0 0 
:bonedata
  begin
     id 1 
     name lhipjoint
     direction 0.630305 -0.712092 0.309259 
     length 2.29033 
     axis 0 0 0  XYZ
  end
  begin
     id 2 
     name lfemur
     direction 0.34202 -0.939693 0  
     length 6.43538  
     axis 0 0 20  XYZ
    dof rx ry rz
    limits (-160.0 20.0)
           (-70.0 70.0)
           (-60.0 70.0)
  end
  begin
     id 3 
     name ltibia
     direction 0.34202 -0.939693 0   
     length 7.43097   
     axis 0 0 20   XYZ
    dof rx
    limits (-10.0 170.0)
  end
  begin
     id 4 
     name lfoot
     direction 0.0334653 -0.0919451 0.995202   
     length 1.78438   
     axis -90 7.62852e-016 20   XYZ
    dof rx rz
    limits (-45.0 90.0)
           (-70.0 20.0)
  end
  begin
     id 5 
     name ltoes
     direction 1.53535e-011 -4.21933e-011 1   
     length 0.90832   
     axis -90 7.62852e-016 20   XYZ
    dof rx
    limits (-90.0 20.0)
  end
  begin
     id 6 
     name rhipjoint
     direction -0.682059 -0.67077 0.291312   
     length 2.43143  
     axis 0 0 0  XYZ 
  end
  begin
     id 7 
     name rfemur
     direction -0.34202 -0.939693 0   
     length 6.63488   
     axis 0 0 -20   XYZ
    dof rx ry rz
    limits (-160.0 20.0)
           (-70.0 70.0)
           (-70.0 60.0)
  end
  begin
     id 8 
     name rtibia
     direction -0.34202 -0.939693 0   
     length 6.86532   
     axis 0 0 -20   XYZ
    dof rx
    limits (-10.0 170.0)
 end
 begin
     id 9 
     name rfoot
     direction -0.105199 -0.289033 0.951521   
     length 1.77126  
     axis -90 -7.62852e-016 -20   XYZ
    dof rx rz
    limits (-45.0 90.0)
           (-20.0 70.0)
  end
  begin
     id 10 
     name rtoes
     direction -1.53551e-011 -4.21978e-011 1   
     length 0.889273   
     axis -90 -7.62852e-016 -20   XYZ
    dof rx
    limits (-90.0 20.0)
  end
  begin
     id 11 
     name lowerback
     direction -0.0514305 0.998089 0.034245   
     length 2.02077   
     axis 0 0 0   XYZ
    dof rx ry rz
    limits (-20.0 45.0)
           (-30.0 30.0)
           (-30.0 30.0)
  end
  begin
     id 12 
     name upperback
     direction 0.0203189 0.999449 -0.0262315   
     length 2.01413   
     axis 0 0 0   XYZ
    dof rx ry rz
    limits (-20.0 45.0)
           (-30.0 30.0)
           (-30.0 30.0)
  end
  begin
     id 13 
     name thorax
     direction 0.0452736 0.998142 -0.0407729   
     length 2.02986   
     axis 0 0 0   XYZ
    dof rx ry rz
    limits (-20.0 45.0)
           (-30.0 30.0)
           (-30.0 30.0)
  end
  begin
     id 14 
     name lowerneck
     direction -0.0180464 0.999645 -0.0195774   
     length 1.59034   
     axis 0 0 0   XYZ
    dof rx ry rz
    limits (-20.0 45.0)
           (-30.0 30.0)
           (-30.0 30.0)
  end
  begin
     id 15 
     name upperneck
     direction 0.0732272 0.979935 -0.18538   
     length 1.57486   
     axis 0 0 0   XYZ
    dof rx ry rz
    limits (-20.0 45.0)
           (-30.0 30.0)
           (-30.0 30.0)
  end
  begin
     id 16
     name head
     direction 0.0252963 0.997909 -0.059472  
     length 1.60334  
     axis 0 0 0   XYZ
    dof rx ry rz
    limits (-20.0 45.0)
           (-30.0 30.0)
           (-30.0 30.0)
  end
  begin
     id 17 
     name lclavicle
     direction 0.943819 0.330449 0.00315172  
     length 3.50322  
     axis 0 0 0   XYZ
    dof ry rz
    limits (-20.0 10.0)
           (0.0 20.0)
  end
  begin
     id 18 
     name lhumerus
     direction 1 -4.48949e-011 2.22502e-028   
     length 4.63208   
     axis 180 -30 -90   XYZ
    dof rx ry rz
    limits (-60.0 90.0)
           (-90.0 90.0)
           (-90.0 90.0)
  end
  begin
     id 19
     name lradius
     direction 1 -4.48967e-011 -4.10197e-027   
     length 3.41924   
     axis 180 -30 -90   XYZ
    dof rx
    limits (-10.0 170.0)
  end
  begin
     id 20
     name lwrist
     direction 1 -4.48987e-011 -1.24264e-027   
     length 1.70962   
     axis 2.50585e-015 90 90   XYZ
    dof ry
    limits (-180.0 0.0)
 end
  begin
     id 21 
     name lhand
     direction 1 -4.48983e-011 -2.48528e-027   
     length 0.62537   
     axis 1.58582e-015 90 90   XYZ
    dof rx rz
    limits (-90.0 90.0)
           (-45.0 45.0)
  end
  begin
     id 22 
     name lfingers
     direction 1 -4.48896e-011 -4.97056e-027   
     length 0.50419   
     axis 3.17164e-015 90 90   XYZ
    dof rx
    limits (0.0 90.0)
  end
  begin
     id 23
     name lthumb
     direction 0.707107 -6.34803e-011 0.707107   
     length 0.723919   
     axis -90 45 2.85299e-015   XYZ
    dof rx rz
    limits (-45.0 45.0)
           (-45.0 45.0)
  end
  begin
     id 24 
     name rclavicle
     direction -0.964499 0.260664 -0.0423695   
     length 3.91997  
     axis 0 0 0   XYZ 
    dof ry rz
    limits (-10.0 20.0)
           (-20.0 0.0)
  end
  begin
     id 25 
     name rhumerus
     direction -1 -4.48957e-011 -1.98656e-027  
     length 4.4064   
     axis 180 30 90   XYZ
    dof rx ry rz
    limits (-90.0 60.0)
           (-90.0 90.0)
           (-90.0 90.0)
  end
  begin
     id 26 
     name rradius
     direction -1 -4.48968e-011 1.96972e-027   
     length 3.44675   
     axis 180 30 90   XYZ
    dof rx
    limits (-10.0 170.0)
  end
  begin
     id 27 
     name rwrist
     direction -1 -4.48974e-011 -1.24264e-027   
     length 1.72338   
     axis 2.50585e-015 -90 -90   XYZ
    dof ry
    limits (-180.0 0.0)
  end
  begin
     id 28
     name rhand
     direction -1 -4.48901e-011 -2.48528e-027   
     length 0.513674   
     axis 1.58582e-015 -90 -90   XYZ
    dof rx rz
    limits (-90.0 90.0)
           (-45.0 45.0)
  end
  begin
     id 29
     name rfingers
     direction -1 -4.48946e-011 -4.97056e-027   
     length 0.414137   
     axis 3.17164e-015 -90 -90   XYZ
    dof rx
    limits (0.0 90.0)
  end
  begin
     id 30
     name rthumb
     direction -0.707107 -6.34859e-011 0.707107   
     length 0.59462   
     axis -90 -45 -2.85299e-015   XYZ
    dof rx rz
    limits (-45.0 45.0)
           (-45.0 45.0)
  end
:hierarchy
  begin
    root lhipjoint rhipjoint lowerback
    lhipjoint lfemur
    lfemur ltibia
    ltibia lfoot
    lfoot ltoes
    rhipjoint rfemur
    rfemur rtibia
    rtibia rfoot
    rfoot rtoes
    lowerback upperback
    upperback thorax
    thorax lowerneck lclavicle rclavicle
    lowerneck upperneck
    upperneck head
    lclavicle lhumerus
    lhumerus lradius
    lradius lwrist
    lwrist lhand lthumb
    lhand lfingers
    rclavicle rhumerus
    rhumerus rradius
    rradius rwrist
    rwrist rhand rthumb
    rhand rfingers
  end

#!OML:ASF E:\inclinewalkrobotboard\Project 1\Capture day 1\Session 1\subject1.ASF
:FULLY-SPECIFIED
:DEGREES
199
root 10.9794 17.0408 -14.5313 11.7919 0.444235 -2.7274
lowerback -0.702299 -0.921857 -11.7754
upperback 4.36974 -0.816388 -0.346558
thorax 5.19967 -0.886325 6.19364
lowerneck -7.90937 -0.516739 -2.46933
upperneck 28.4463 -2.69698 8.65587
head 10.5285 -0.562672 3.23349
rclavicle 8.74653e-015 1.90833e-014
rhumerus -50.4212 -25.4701 -64.1702
rradius 17.8213
rwrist 33.9865
rhand -11.4155 -36.7825
rfingers 7.12502
rthumb 14.6202 -66.2471
lclavicle 8.74653e-015 1.90833e-014
lhumerus -9.66534 -14.5244 95.347
lradius 15.7809
lwrist -25.6165
lhand -24.925 -18.8991
lfingers 7.12502
lthumb 1.58397 11.0747
rfemur -33.6598 10.2396 7.39743
rtibia 26.7441
rfoot -10.9136 -15.626
rtoes -35.9739
lfemur -15.7538 -10.2611 -16.7287
ltibia 23.3506
lfoot -23.424 7.34202
ltoes -66.8886
200
root 10.9301 17.027 -14.406 11.6823 0.982702 -2.09684
lowerback -0.379775 -1.07912 -12.2652
upperback 4.31876 -1.06087 -0.289267
thorax 5.02986 -1.01685 6.52059
lowerneck -7.81237 -0.544192 -2.66474
upperneck 28.6504 -2.74411 8.76329
head 10.5919 -0.591632 3.3086
rclavicle -7.95139e-016 1.11319e-014
rhumerus -52.2931 -27.3736 -61.6324
rradius 16.7322
rwrist 39.4377
rhand -15.5771 -34.2359
rfingers 7.12502
rthumb 10.6081 -63.9481
lclavicle -7.95139e-016 1.11319e-014
lhumerus -9.97206 -15.8734 96.1048
lradius 16.0406
lwrist -24.8843
lhand -24.9597 -18.8809
lfingers 7.12502
lthumb 1.55046 11.0933
rfemur -33.7246 9.47401 6.85021
rtibia 25.5476
rfoot -9.84086 -15.6292
rtoes -36.1043
lfemur -15.3321 -10.4785 -17.3204
ltibia 23.6274
lfoot -23.7963 6.84414
ltoes -66.8292
201
root 10.8722 17.0115 -14.2782 11.5725 1.37281 -1.8484
lowerback -0.0980303 -1.09469 -12.3336
upperback 4.33609 -1.12486 -0.135272
thorax 4.9074 -1.04898 6.72489
lowerneck -8.55659 -0.918798 -3.18225
upperneck 29.3721 -3.32332 9.09301
head 11.0712 -0.845035 3.48507
rclavicle 1.70955e-014 -1.43125e-014
rhumerus -52.8306 -27.5352 -61.763
rradius 17.2587
rwrist 37.3358
rhand -14.0573 -35.2478
rfingers 7.12502
rthumb 12.0738 -64.8795
lclavicle 1.70955e-014 -1.43125e-014
lhumerus -10.2201 -17.7209 96.8923
lradius 16.5307
lwrist -23.7392
lhand -24.822 -18.8976
lfingers 7.12502
lthumb 1.68347 11.0755
rfemur -33.8102 8.9038 6.827
rtibia 24.3114
rfoot -8.79946 -15.6379
rtoes -36.2167
lfemur -14.8962 -10.5248 -17.3998
ltibia 23.9003
lfoot -24.1356 6.49892
ltoes -66.7481
202
root 10.832 16.9838 -14.1013 11.2565 1.57518 -1.37363
lowerback -0.409118 -0.977213 -12.1982
upperback 4.66753 -0.90381 -0.143991
thorax 5.3922 -0.976898 6.643
lowerneck -10.6493 -1.80043 -4.90077
upperneck 31.6057 -4.849 10.6386
head 12.6133 -1.46144 4.29899
rclavicle 1.39149e-014 3.33958e-014
rhumerus -53.3991 -28.6516 -61.1463
rradius 17.2803
rwrist 36.2259
rhand -13.0747 -36.0319
rfingers 7.12502
rthumb 13.0212 -65.6055
lclavicle 1.39149e-014 3.33958e-014
lhumerus -10.2536 -19.5827 97.7704
lradius 17.0215
lwrist -22.8098
lhand -24.4965 -18.661
lfingers 7.12502
lthumb 1.99784 11.3094
rfemur -33.137 7.90084 6.79868
rtibia 22.6158
rfoot -7.82175 -14.8166
rtoes -37.046
lfemur -13.5571 -10.7085 -18.1293
ltibia 23.5386
lfoot -24.556 6.2696
ltoes -66.6044
203
root 10.7712 16.962 -13.9561 11.1343 1.82846 -1.19081
lowerback -0.363432 -1.05858 -12.143
upperback 4.69229 -1.0231 -0.0410945
thorax 5.41823 -1.03905 6.71581
lowerneck -11.396 -2.09375 -5.18595
upperneck 32.7996 -5.4428 11.0371
head 13.3746 -1.67634 4.49394
rclavicle -5.56597e-015 9.54166e-015
rhumerus -53.9098 -29.261 -60.6851
rradius 16.8796
rwrist 36.3316
rhand -13.2299 -36.3823
rfingers 7.12502
rthumb 12.8716 -65.9654
lclavicle -5.56597e-015 9.54166e-015
lhumerus -10.5227 -20.3572 98.2979
lradius 17.3729
lwrist -22.2503
lhand -24.1118 -18.7257
lfingers 7.12502
lthumb 2.36937 11.2408
rfemur -33.0292 7.26702 7.04417
rtibia 21.4577
rfoot -7.14604 -14.3832
rtoes -38.5596
lfemur -12.9089 -10.5792 -18.1762
ltibia 23.5384
lfoot -24.8877 5.77853
ltoes -66.4459
204
root 10.703 16.9398 -13.8035 11.0657 2.15917 -1.3212
lowerback -0.298406 -1.59231 -12.0825
upperback 4.48023 -1.76563 0.0990987
thorax 5.31046 -1.39218 6.79116
lowerneck -10.5447 -1.4464 -3.31543
upperneck 32.7383 -4.49097 9.55437
head 12.9687 -1.23593 3.68073
rclavicle -5.96354e-015 2.70347e-014
rhumerus -54.1349 -29.1582 -60.6647
rradius 16.4257
rwrist 36.5459
rhand -12.4037 -36.648
rfingers 7.12502
rthumb 13.6679 -66.1792
lclavicle -5.96354e-015 2.70347e-014
lhumerus -11.205 -19.9577 98.1561
lradius 17.7176
lwrist -21.82
lhand -24.1422 -19.1066
lfingers 7.12502
lthumb 2.34004 10.8603
rfemur -32.9803 6.86155 7.63439
rtibia 20.4898
rfoot -6.3911 -14.2767
rtoes -40.7874
lfemur -12.2807 -10.402 -17.7282
ltibia 23.4936
lfoot -25.133 5.23485
ltoes -66.3312
205
root 10.6414 16.9131 -13.6255 10.8806 2.42162 -0.8186
lowerback -0.422806 -1.68202 -12.2374
upperback 4.55005 -1.8622 0.191098
thorax 5.491 -1.46295 6.96636
lowerneck -10.202 -1.46963 -3.53906
upperneck 32.4606 -4.49 9.68161
head 12.7834 -1.25855 3.75871
rclavicle 2.74323e-014 3.97569e-015
rhumerus -54.2168 -29.4297 -60.4744
rradius 16.3909
rwrist 35.1371
rhand -10.737 -37.6209
rfingers 7.12502
rthumb 15.2739 -67.037
lclavicle 2.74323e-014 3.97569e-015
lhumerus -11.5862 -21.4218 98.8098
lradius 18.1184
lwrist -20.7999
lhand -24.3629 -19.125
lfingers 7.12502
lthumb 2.12692 10.8441
rfemur -32.6674 6.03484 7.61282
rtibia 19.5843
rfoot -5.8073 -13.5981
rtoes -41.1472
lfemur -11.1438 -10.5537 -18.2215
ltibia 23.2132
lfoot -25.3652 4.85052
ltoes -66.2889
206
root 10.5695 16.8949 -13.4701 10.8579 2.63352 -0.567493
lowerback -0.322541 -1.71551 -12.1558
upperback 4.46817 -1.93719 0.375737
thorax 5.36418 -1.491 7.11869
lowerneck -9.70966 -1.45286 -3.35714
upperneck 32.1675 -4.38166 9.36061
head 12.5311 -1.24166 3.59967
rclavicle 3.97569e-016 -1.51076e-014
rhumerus -54.6522 -29.9528 -59.6437
rradius 15.8801
rwrist 36.6727
rhand -11.4768 -37.1307
rfingers 7.12502
rthumb 14.5612 -66.5997
lclavicle 3.97569e-016 -1.51076e-014
lhumerus -11.9318 -22.199 99.3905
lradius 18.3679
lwrist -20.2913
lhand -23.9834 -19.2105
lfingers 7.12502
lthumb 2.49339 10.7546
rfemur -32.8909 5.54603 7.86176
rtibia 19.2214
rfoot -5.33858 -12.9896
rtoes -40.3164
lfemur -10.5015 -10.711 -18.2496
ltibia 23.1716
lfoot -25.5635 4.57255
ltoes -66.258
207
root 10.4996 16.8779 -13.3023 10.8368 2.92302 -0.351341
lowerback -0.325309 -1.76102 -11.8134
upperback 4.40055 -2.01887 0.523641
thorax 5.29704 -1.51426 7.08068
lowerneck -9.43657 -1.37631 -2.87824
upperneck 32.0255 -4.18324 8.78536
head 12.3727 -1.17082 3.3087
rclavicle -1.86858e-014 -1.74931e-014
rhumerus -55.5426 -31.4346 -57.7275
rradius 15.4598
rwrist 38.8879
rhand -11.4592 -36.5455
rfingers 7.12502
rthumb 14.5781 -66.0132
lclavicle -1.86858e-014 -1.74931e-014
lhumerus -12.2942 -22.403 99.8609
lradius 18.5694
lwrist -20.375
lhand -23.2937 -19.5337
lfingers 7.12502
lthumb 3.15948 10.4227
rfemur -32.9225 5.11588 8.18445
rtibia 18.8823
rfoot -4.72471 -12.4882
rtoes -40.4877
lfemur -9.72911 -10.9656 -18.2895
ltibia 22.9586
lfoot -25.7829 4.30477
ltoes -66.1908
208
root 10.4275 16.8613 -13.1279 10.9593 3.35319 -0.129588
lowerback -0.516966 -1.91621 -11.3569
upperback 4.31606 -2.22814 0.70121
thorax 5.34171 -1.60243 6.99581
lowerneck -9.34491 -1.3092 -2.49423
upperneck 31.9284 -3.9083 7.98419
head 12.2649 -1.09908 2.9617
rclavicle 2.48481e-014 1.19271e-014
rhumerus -56.5551 -32.6619 -55.8075
rradius 14.8757
rwrist 42.618
rhand -13.4605 -35.5839
rfingers 7.12502
rthumb 12.6493 -65.1808
lclavicle 2.48481e-014 1.19271e-014
lhumerus -12.6969 -22.8278 100.243
lradius 18.83
lwrist -20.2677
lhand -23.1593 -19.7071
lfingers 7.12502
lthumb 3.28927 10.2473
rfemur -32.9497 4.74543 8.46031
rtibia 18.5818
rfoot -4.53514 -12.2405
rtoes -40.9068
lfemur -9.10226 -11.2545 -18.2752
ltibia 22.7541
lfoot -25.8854 3.96868
ltoes -66.1715
209
root 10.359 16.836 -12.9267 11.0238 3.96626 0.322942
lowerback -0.904604 -2.15264 -10.9653
upperback 4.28179 -2.51823 0.860732
thorax 5.57182 -1.74477 6.91299
lowerneck -9.52111 -1.34559 -2.46688
upperneck 32.2675 -3.90471 7.70617
head 12.4348 -1.11656 2.86153
rclavicle -2.42517e-014 2.38542e-014
rhumerus -57.6129 -33.328 -54.0678
rradius 14.1445
rwrist 47.4346
rhand -17.6505 -34.8633
rfingers 7.12502
rthumb 8.60765 -64.6678
lclavicle -2.42517e-014 2.38542e-014
lhumerus -13.15 -23.3216 100.639
lradius 19.0388
lwrist -20.0957
lhand -23.2308 -19.8573
lfingers 7.12502
lthumb 3.22018 10.0981
rfemur -32.5593 4.16141 8.54388
rtibia 18.1973
rfoot -4.49202 -11.8819
rtoes -40.917
lfemur -8.15943 -11.7753 -18.6375
ltibia 22.3441
lfoot -25.9598 3.56324
ltoes -66.1901
210
root 10.2776 16.8102 -12.7328 11.3309 4.69052 0.937209
lowerback -1.30303 -2.36514 -10.7528
upperback 4.12674 -2.77919 1.03966
thorax 5.68366 -1.86911 6.95353
lowerneck -9.56296 -1.43271 -2.45597
upperneck 32.4646 -3.89979 7.25421
head 12.5138 -1.1603 2.69174
rclavicle 1.63003e-014 5.1684e-015
rhumerus -56.6877 -32.546 -55.2758
rradius 15.0616
rwrist 41.6025
rhand -12.8802 -35.6646
rfingers 7.12502
rthumb 13.2087 -65.2261
lclavicle 1.63003e-014 5.1684e-015
lhumerus -13.5841 -23.7464 101.045
lradius 19.2026
lwrist -20.1049
lhand -22.7488 -20.0754
lfingers 7.12502
lthumb 3.68573 9.87246
rfemur -32.4978 3.80531 8.35257
rtibia 18.1398
rfoot -4.50873 -11.7435
rtoes -39.2086
lfemur -7.63743 -12.3492 -18.9917
ltibia 22.0875
lfoot -26.0588 3.03427
ltoes -66.1386
